<svg xmlns="http://www.w3.org/2000/svg" xmlns:xlink="http://www.w3.org/1999/xlink" id="Capa_1" x="0px" y="0px" viewBox="0 0 500 150" style="enable-background:new 0 0 500 150;" xml:space="preserve"> <style type="text/css"> .st0{clip-path:url(#SVGID_00000088101863991285290370000002445629956020924828_);} .st1{clip-path:url(#SVGID_00000022544301882947164090000005964908999304679065_);} .st2{fill:url(#SVGID_00000159459815493678105140000012885060458700422540_);} .st3{clip-path:url(#SVGID_00000164495799073364061780000001173608409958413484_);} .st4{fill:#F8F8F8;} .st5{clip-path:url(#SVGID_00000139293988545938022310000012367128696843130030_);} </style> <g> <defs> <rect id="SVGID_1_" x="47.2" y="19.2" width="73.7" height="110.5"></rect> </defs> <clipPath id="SVGID_00000065766422466319155330000008866358957440395168_"> <use xlink:href="#SVGID_1_" style="overflow:visible;"></use> </clipPath> <g style="clip-path:url(#SVGID_00000065766422466319155330000008866358957440395168_);"> <g> <defs> <path id="SVGID_00000050640895118347416470000003935627037429233069_" d="M96.5,20c-0.7-0.5-1.5-0.8-2.4-0.8 c-2.2,0-4.1,1.8-4.1,4v33.6H84c-20.3,0-36.8,16.3-36.8,36.4s16.5,36.4,36.8,36.4s36.8-16.3,36.8-36.4v-14h-8.1v14 c0,15.7-12.9,28.4-28.7,28.4c-15.8,0-28.7-12.8-28.7-28.4c0-15.6,12.9-28.4,28.7-28.4h6.1v14.4H84c-7.8,0-14.2,6.3-14.2,14 s6.4,14,14.2,14s14.2-6.3,14.2-14v-0.6c0-16.4,0-32.9,0-49.3c12-1.4,16.7,9.8,14.3,33.8c8-11.5,10.7-27.5-2.3-40.3 c-2.1-2-4.2-4-6.2-6C101,27.8,97.3,20.5,96.5,20z"></path> </defs> <clipPath id="SVGID_00000154395819302860106080000011302098147294323129_"> <use xlink:href="#SVGID_00000050640895118347416470000003935627037429233069_" style="overflow:visible;"></use> </clipPath> <g style="clip-path:url(#SVGID_00000154395819302860106080000011302098147294323129_);"> <linearGradient id="SVGID_00000118385570992635667530000000173398724116769439_" gradientUnits="userSpaceOnUse" x1="906.2816" y1="-388.8694" x2="696.347" y2="-503.4342" gradientTransform="matrix(0.4938 0 0 -0.4889 -311.6925 -143.6881)"> <stop offset="0" style="stop-color:#FFDD59"></stop> <stop offset="3.906250e-03" style="stop-color:#FFDC58"></stop> <stop offset="7.812500e-03" style="stop-color:#FFDB58"></stop> <stop offset="1.171880e-02" style="stop-color:#FFDB58"></stop> <stop offset="1.562500e-02" style="stop-color:#FFDA58"></stop> <stop offset="1.953120e-02" style="stop-color:#FFD957"></stop> <stop offset="2.343750e-02" style="stop-color:#FFD857"></stop> <stop offset="2.734380e-02" style="stop-color:#FFD857"></stop> <stop offset="3.125000e-02" style="stop-color:#FFD757"></stop> <stop offset="3.515620e-02" style="stop-color:#FFD656"></stop> <stop offset="3.906250e-02" style="stop-color:#FFD556"></stop> <stop offset="4.296880e-02" style="stop-color:#FFD556"></stop> <stop offset="4.687500e-02" style="stop-color:#FFD456"></stop> <stop offset="5.078120e-02" style="stop-color:#FFD355"></stop> <stop offset="5.468750e-02" style="stop-color:#FFD255"></stop> <stop offset="5.859370e-02" style="stop-color:#FFD255"></stop> <stop offset="6.250000e-02" style="stop-color:#FFD155"></stop> <stop offset="6.640620e-02" style="stop-color:#FFD054"></stop> <stop offset="7.031250e-02" style="stop-color:#FFCF54"></stop> <stop offset="7.421880e-02" style="stop-color:#FFCE54"></stop> <stop offset="7.812500e-02" style="stop-color:#FFCE53"></stop> <stop offset="8.203129e-02" style="stop-color:#FFCD53"></stop> <stop offset="8.593750e-02" style="stop-color:#FFCC53"></stop> <stop offset="8.984371e-02" style="stop-color:#FFCB53"></stop> <stop offset="9.375000e-02" style="stop-color:#FFCB52"></stop> <stop offset="9.765621e-02" style="stop-color:#FFCA52"></stop> <stop offset="0.1016" style="stop-color:#FFC952"></stop> <stop offset="0.1055" style="stop-color:#FFC852"></stop> <stop offset="0.1094" style="stop-color:#FFC851"></stop> <stop offset="0.1133" style="stop-color:#FFC751"></stop> <stop offset="0.1172" style="stop-color:#FFC651"></stop> <stop offset="0.1211" style="stop-color:#FFC551"></stop> <stop offset="0.125" style="stop-color:#FFC550"></stop> <stop offset="0.1289" style="stop-color:#FFC450"></stop> <stop offset="0.1328" style="stop-color:#FFC350"></stop> <stop offset="0.1367" style="stop-color:#FFC250"></stop> <stop offset="0.1406" style="stop-color:#FFC14F"></stop> <stop offset="0.1445" style="stop-color:#FFC14F"></stop> <stop offset="0.1484" style="stop-color:#FFC04F"></stop> <stop offset="0.1523" style="stop-color:#FFBF4F"></stop> <stop offset="0.1562" style="stop-color:#FFBE4E"></stop> <stop offset="0.1602" style="stop-color:#FFBE4E"></stop> <stop offset="0.1641" style="stop-color:#FFBD4E"></stop> <stop offset="0.168" style="stop-color:#FFBC4E"></stop> <stop offset="0.1719" style="stop-color:#FFBB4D"></stop> <stop offset="0.1758" style="stop-color:#FFBB4D"></stop> <stop offset="0.1797" style="stop-color:#FFBA4D"></stop> <stop offset="0.1836" style="stop-color:#FFB94D"></stop> <stop offset="0.1875" style="stop-color:#FFB84C"></stop> <stop offset="0.1914" style="stop-color:#FFB84C"></stop> <stop offset="0.1953" style="stop-color:#FFB74C"></stop> <stop offset="0.1992" style="stop-color:#FFB64C"></stop> <stop offset="0.2031" style="stop-color:#FFB54B"></stop> <stop offset="0.207" style="stop-color:#FFB44B"></stop> <stop offset="0.2109" style="stop-color:#FFB44B"></stop> <stop offset="0.2148" style="stop-color:#FFB34B"></stop> <stop offset="0.2188" style="stop-color:#FFB24A"></stop> <stop offset="0.2227" style="stop-color:#FFB14A"></stop> <stop offset="0.2266" style="stop-color:#FFB14A"></stop> <stop offset="0.2305" style="stop-color:#FFB04A"></stop> <stop offset="0.2344" style="stop-color:#FFAF49"></stop> <stop offset="0.2383" style="stop-color:#FFAE49"></stop> <stop offset="0.2422" style="stop-color:#FFAE49"></stop> <stop offset="0.2461" style="stop-color:#FFAD48"></stop> <stop offset="0.25" style="stop-color:#FFAC48"></stop> <stop offset="0.2539" style="stop-color:#FFAB48"></stop> <stop offset="0.2578" style="stop-color:#FFAB48"></stop> <stop offset="0.2617" style="stop-color:#FFAA47"></stop> <stop offset="0.2656" style="stop-color:#FFA947"></stop> <stop offset="0.2695" style="stop-color:#FFA847"></stop> <stop offset="0.2734" style="stop-color:#FFA847"></stop> <stop offset="0.2773" style="stop-color:#FFA746"></stop> <stop offset="0.2812" style="stop-color:#FFA646"></stop> <stop offset="0.2852" style="stop-color:#FFA546"></stop> <stop offset="0.2891" style="stop-color:#FFA446"></stop> <stop offset="0.293" style="stop-color:#FFA445"></stop> <stop offset="0.2969" style="stop-color:#FFA345"></stop> <stop offset="0.3008" style="stop-color:#FFA245"></stop> <stop offset="0.3047" style="stop-color:#FFA145"></stop> <stop offset="0.3086" style="stop-color:#FFA144"></stop> <stop offset="0.3125" style="stop-color:#FFA044"></stop> <stop offset="0.3164" style="stop-color:#FF9F44"></stop> <stop offset="0.3203" style="stop-color:#FF9E44"></stop> <stop offset="0.3242" style="stop-color:#FF9E43"></stop> <stop offset="0.3281" style="stop-color:#FF9D43"></stop> <stop offset="0.332" style="stop-color:#FF9C43"></stop> <stop offset="0.3359" style="stop-color:#FF9B43"></stop> <stop offset="0.3398" style="stop-color:#FF9B42"></stop> <stop offset="0.3438" style="stop-color:#FF9A42"></stop> <stop offset="0.3477" style="stop-color:#FF9942"></stop> <stop offset="0.3516" style="stop-color:#FF9842"></stop> <stop offset="0.3555" style="stop-color:#FF9741"></stop> <stop offset="0.3594" style="stop-color:#FF9741"></stop> <stop offset="0.3633" style="stop-color:#FF9641"></stop> <stop offset="0.3672" style="stop-color:#FF9541"></stop> <stop offset="0.3711" style="stop-color:#FF9440"></stop> <stop offset="0.375" style="stop-color:#FF9440"></stop> <stop offset="0.3789" style="stop-color:#FF9340"></stop> <stop offset="0.3828" style="stop-color:#FF9240"></stop> <stop offset="0.3867" style="stop-color:#FF913F"></stop> <stop offset="0.3906" style="stop-color:#FF913F"></stop> <stop offset="0.3945" style="stop-color:#FF903F"></stop> <stop offset="0.3984" style="stop-color:#FF8F3F"></stop> <stop offset="0.4023" style="stop-color:#FF8E3E"></stop> <stop offset="0.4062" style="stop-color:#FF8E3E"></stop> <stop offset="0.4102" style="stop-color:#FF8D3E"></stop> <stop offset="0.4141" style="stop-color:#FF8C3D"></stop> <stop offset="0.418" style="stop-color:#FF8B3D"></stop> <stop offset="0.4219" style="stop-color:#FF8A3D"></stop> <stop offset="0.4258" style="stop-color:#FF8A3D"></stop> <stop offset="0.4297" style="stop-color:#FF893C"></stop> <stop offset="0.4336" style="stop-color:#FF883C"></stop> <stop offset="0.4375" style="stop-color:#FF873C"></stop> <stop offset="0.4414" style="stop-color:#FF873C"></stop> <stop offset="0.4453" style="stop-color:#FF863B"></stop> <stop offset="0.4492" style="stop-color:#FF853B"></stop> <stop offset="0.4531" style="stop-color:#FF843B"></stop> <stop offset="0.457" style="stop-color:#FF843B"></stop> <stop offset="0.4609" style="stop-color:#FF833A"></stop> <stop offset="0.4648" style="stop-color:#FF823A"></stop> <stop offset="0.4688" style="stop-color:#FF813A"></stop> <stop offset="0.4727" style="stop-color:#FF813A"></stop> <stop offset="0.4766" style="stop-color:#FF8039"></stop> <stop offset="0.4805" style="stop-color:#FF7F39"></stop> <stop offset="0.4844" style="stop-color:#FF7E39"></stop> <stop offset="0.4883" style="stop-color:#FF7E39"></stop> <stop offset="0.4922" style="stop-color:#FF7D38"></stop> <stop offset="0.4961" style="stop-color:#FF7C38"></stop> <stop offset="0.5" style="stop-color:#FF7B38"></stop> <stop offset="0.5039" style="stop-color:#FF7A38"></stop> <stop offset="0.5078" style="stop-color:#FF7A37"></stop> <stop offset="0.5117" style="stop-color:#FF7937"></stop> <stop offset="0.5156" style="stop-color:#FF7837"></stop> <stop offset="0.5195" style="stop-color:#FF7737"></stop> <stop offset="0.5234" style="stop-color:#FF7736"></stop> <stop offset="0.5273" style="stop-color:#FF7636"></stop> <stop offset="0.5312" style="stop-color:#FF7536"></stop> <stop offset="0.5352" style="stop-color:#FF7436"></stop> <stop offset="0.5391" style="stop-color:#FF7435"></stop> <stop offset="0.543" style="stop-color:#FF7335"></stop> <stop offset="0.5469" style="stop-color:#FF7235"></stop> <stop offset="0.5508" style="stop-color:#FF7135"></stop> <stop offset="0.5547" style="stop-color:#FF7134"></stop> <stop offset="0.5586" style="stop-color:#FF7034"></stop> <stop offset="0.5625" style="stop-color:#FF6F34"></stop> <stop offset="0.5664" style="stop-color:#FF6E34"></stop> <stop offset="0.5703" style="stop-color:#FF6D33"></stop> <stop offset="0.5742" style="stop-color:#FF6D33"></stop> <stop offset="0.5781" style="stop-color:#FF6C33"></stop> <stop offset="0.582" style="stop-color:#FF6B32"></stop> <stop offset="0.5859" style="stop-color:#FF6A32"></stop> <stop offset="0.5898" style="stop-color:#FF6A32"></stop> <stop offset="0.5938" style="stop-color:#FF6932"></stop> <stop offset="0.5977" style="stop-color:#FF6831"></stop> <stop offset="0.6016" style="stop-color:#FF6731"></stop> <stop offset="0.6055" style="stop-color:#FF6731"></stop> <stop offset="0.6094" style="stop-color:#FF6631"></stop> <stop offset="0.6133" style="stop-color:#FF6530"></stop> <stop offset="0.6172" style="stop-color:#FF6430"></stop> <stop offset="0.6211" style="stop-color:#FF6430"></stop> <stop offset="0.625" style="stop-color:#FF6330"></stop> <stop offset="0.6289" style="stop-color:#FF622F"></stop> <stop offset="0.6328" style="stop-color:#FF612F"></stop> <stop offset="0.6367" style="stop-color:#FF612F"></stop> <stop offset="0.6406" style="stop-color:#FF602F"></stop> <stop offset="0.6445" style="stop-color:#FF5F2E"></stop> <stop offset="0.6484" style="stop-color:#FF5E2E"></stop> <stop offset="0.6523" style="stop-color:#FF5D2E"></stop> <stop offset="0.6562" style="stop-color:#FF5D2E"></stop> <stop offset="0.6602" style="stop-color:#FF5C2D"></stop> <stop offset="0.6641" style="stop-color:#FF5B2D"></stop> <stop offset="0.668" style="stop-color:#FF5A2D"></stop> <stop offset="0.6719" style="stop-color:#FF5A2D"></stop> <stop offset="0.6758" style="stop-color:#FF592C"></stop> <stop offset="0.6797" style="stop-color:#FF582C"></stop> <stop offset="0.6836" style="stop-color:#FF572C"></stop> <stop offset="0.6875" style="stop-color:#FF572C"></stop> <stop offset="0.6914" style="stop-color:#FF562B"></stop> <stop offset="0.6953" style="stop-color:#FF552B"></stop> <stop offset="0.6992" style="stop-color:#FF542B"></stop> <stop offset="0.7031" style="stop-color:#FF542B"></stop> <stop offset="0.707" style="stop-color:#FF532A"></stop> <stop offset="0.7109" style="stop-color:#FF522A"></stop> <stop offset="0.7148" style="stop-color:#FF512A"></stop> <stop offset="0.7188" style="stop-color:#FF502A"></stop> <stop offset="0.7227" style="stop-color:#FF5029"></stop> <stop offset="0.7266" style="stop-color:#FF4F29"></stop> <stop offset="0.7305" style="stop-color:#FF4E29"></stop> <stop offset="0.7344" style="stop-color:#FF4D29"></stop> <stop offset="0.7383" style="stop-color:#FF4D28"></stop> <stop offset="0.7422" style="stop-color:#FF4C28"></stop> <stop offset="0.7461" style="stop-color:#FF4B28"></stop> <stop offset="0.75" style="stop-color:#FF4A27"></stop> <stop offset="0.7539" style="stop-color:#FF4A27"></stop> <stop offset="0.7578" style="stop-color:#FF4927"></stop> <stop offset="0.7617" style="stop-color:#FF4827"></stop> <stop offset="0.7656" style="stop-color:#FF4726"></stop> <stop offset="0.7695" style="stop-color:#FF4726"></stop> <stop offset="0.7734" style="stop-color:#FF4626"></stop> <stop offset="0.7773" style="stop-color:#FF4526"></stop> <stop offset="0.7812" style="stop-color:#FF4425"></stop> <stop offset="0.7852" style="stop-color:#FF4425"></stop> <stop offset="0.7891" style="stop-color:#FF4325"></stop> <stop offset="0.793" style="stop-color:#FF4225"></stop> <stop offset="0.7969" style="stop-color:#FF4124"></stop> <stop offset="0.8008" style="stop-color:#FF4024"></stop> <stop offset="0.8047" style="stop-color:#FF4024"></stop> <stop offset="0.8086" style="stop-color:#FF3F24"></stop> <stop offset="0.8125" style="stop-color:#FF3E23"></stop> <stop offset="0.8164" style="stop-color:#FF3D23"></stop> <stop offset="0.8203" style="stop-color:#FF3D23"></stop> <stop offset="0.8242" style="stop-color:#FF3C23"></stop> <stop offset="0.8281" style="stop-color:#FF3B22"></stop> <stop offset="0.832" style="stop-color:#FF3A22"></stop> <stop offset="0.8359" style="stop-color:#FF3A22"></stop> <stop offset="0.8398" style="stop-color:#FF3922"></stop> <stop offset="0.8438" style="stop-color:#FF3821"></stop> <stop offset="0.8477" style="stop-color:#FF3721"></stop> <stop offset="0.8516" style="stop-color:#FF3721"></stop> <stop offset="0.8555" style="stop-color:#FF3621"></stop> <stop offset="0.8594" style="stop-color:#FF3520"></stop> <stop offset="0.8633" style="stop-color:#FF3420"></stop> <stop offset="0.8672" style="stop-color:#FF3320"></stop> <stop offset="0.8711" style="stop-color:#FF3320"></stop> <stop offset="0.875" style="stop-color:#FF321F"></stop> <stop offset="0.8789" style="stop-color:#FF311F"></stop> <stop offset="0.8828" style="stop-color:#FF301F"></stop> <stop offset="0.8867" style="stop-color:#FF301F"></stop> <stop offset="0.8906" style="stop-color:#FF2F1E"></stop> <stop offset="0.8945" style="stop-color:#FF2E1E"></stop> <stop offset="0.8984" style="stop-color:#FF2D1E"></stop> <stop offset="0.9023" style="stop-color:#FF2D1E"></stop> <stop offset="0.9062" style="stop-color:#FF2C1D"></stop> <stop offset="0.9102" style="stop-color:#FF2B1D"></stop> <stop offset="0.9141" style="stop-color:#FF2A1D"></stop> <stop offset="0.918" style="stop-color:#FF2A1C"></stop> <stop offset="0.9219" style="stop-color:#FF291C"></stop> <stop offset="0.9258" style="stop-color:#FF281C"></stop> <stop offset="0.9297" style="stop-color:#FF271C"></stop> <stop offset="0.9336" style="stop-color:#FF261B"></stop> <stop offset="0.9375" style="stop-color:#FF261B"></stop> <stop offset="0.9414" style="stop-color:#FF251B"></stop> <stop offset="0.9453" style="stop-color:#FF241B"></stop> <stop offset="0.9492" style="stop-color:#FF231A"></stop> <stop offset="0.9531" style="stop-color:#FF231A"></stop> <stop offset="0.957" style="stop-color:#FF221A"></stop> <stop offset="0.9609" style="stop-color:#FF211A"></stop> <stop offset="0.9648" style="stop-color:#FF2019"></stop> <stop offset="0.9688" style="stop-color:#FF2019"></stop> <stop offset="0.9727" style="stop-color:#FF1F19"></stop> <stop offset="0.9766" style="stop-color:#FF1E19"></stop> <stop offset="0.9805" style="stop-color:#FF1D18"></stop> <stop offset="0.9844" style="stop-color:#FF1D18"></stop> <stop offset="0.9883" style="stop-color:#FF1C18"></stop> <stop offset="0.9922" style="stop-color:#FF1B18"></stop> <stop offset="0.9961" style="stop-color:#FF1A17"></stop> <stop offset="1" style="stop-color:#FF1A17"></stop> </linearGradient> <path style="fill:url(#SVGID_00000118385570992635667530000000173398724116769439_);" d="M47.2,19.2v110.5h73.6V19.2H47.2z"></path> </g> </g> </g> </g> <g> <defs> <rect id="SVGID_00000083802463499956254020000002794634527515961275_" x="430.3" y="78.7" width="10" height="10"></rect> </defs> <clipPath id="SVGID_00000023963132987573063550000007247944790568693425_"> <use xlink:href="#SVGID_00000083802463499956254020000002794634527515961275_" style="overflow:visible;"></use> </clipPath> <g style="clip-path:url(#SVGID_00000023963132987573063550000007247944790568693425_);"> <path d="M435.3,78.7c-2.8,0-5,2.2-5,5s2.2,5,5,5c2.7,0,5-2.2,5-5S438,78.7,435.3,78.7z M435.3,79.2c2.5,0,4.5,2,4.5,4.5 s-2,4.5-4.5,4.5c-2.5,0-4.5-2-4.5-4.5S432.8,79.2,435.3,79.2z M433.9,81.8v3.9h0.5v-1.5h1l0.8,1.5h0.6l-0.9-1.6 c0.5-0.2,0.8-0.6,0.8-1.1c0-0.7-0.5-1.2-1.2-1.2H433.9z M434.4,82.2h0.9c0.5,0,0.8,0.3,0.8,0.7c0,0.5-0.3,0.7-0.8,0.7h-1V82.2z"></path> </g> </g> <path class="st4" d="M435.7,89.1h-1.8v-3.2h1.8c1.3,0,2,0.6,2,1.6C437.7,88.5,437,89.1,435.7,89.1z M439.2,87.5 c0-1.8-1.3-2.9-3.5-2.9h-3.3v8.1h1.5v-2.4h1.8c0.1,0,0.2,0,0.3,0l1.7,2.4h1.6l-1.9-2.7C438.6,89.7,439.2,88.8,439.2,87.5"></path> <g> <defs> <rect id="SVGID_00000123408638974016246720000011098460107491883686_" x="427.1" y="80.5" width="16.9" height="16.9"></rect> </defs> <clipPath id="SVGID_00000035528643865061906760000002345539255411707035_"> <use xlink:href="#SVGID_00000123408638974016246720000011098460107491883686_" style="overflow:visible;"></use> </clipPath> <g style="clip-path:url(#SVGID_00000035528643865061906760000002345539255411707035_);"> <path class="st4" d="M435.5,95.9c-3.9,0-7-3.1-7-7c0-3.9,3.1-7,7-7c3.9,0,7,3.1,7,7C442.5,92.8,439.4,95.9,435.5,95.9z M435.5,80.5c-4.7,0-8.5,3.8-8.5,8.5c0,4.7,3.8,8.5,8.5,8.5c4.7,0,8.5-3.8,8.5-8.5C444,84.3,440.2,80.5,435.5,80.5"></path> </g> </g> <g> <g transform="translate(93.831624, 93.599218)"> <g> <path class="st4" d="M47.9-0.9c4.3,0,8,1.6,11.1,4.6c3.2,3.1,4.7,6.9,4.7,11.5c0,4.6-1.5,8.5-4.5,11.7c-3,3.2-6.7,4.8-11.1,4.8 c-4.4,0-8.1-1.6-11.2-4.8c-3.1-3.2-4.6-7-4.6-11.4c0-2.4,0.4-4.6,1.3-6.7c0.9-2.1,2-3.9,3.5-5.3c1.4-1.4,3.1-2.5,5-3.3 C44-0.5,45.9-0.9,47.9-0.9z M40,15.4c0,2.6,0.8,4.7,2.5,6.3c1.7,1.6,3.5,2.4,5.6,2.4c2.1,0,3.9-0.8,5.5-2.3 c1.7-1.6,2.5-3.7,2.5-6.3s-0.8-4.7-2.5-6.3C52,7.5,50.1,6.7,48,6.7c-2.1,0-3.9,0.8-5.6,2.4C40.8,10.7,40,12.8,40,15.4z"></path> </g> </g> </g> <g> <g transform="translate(126.847562, 93.599218)"> <g> <path class="st4" d="M64.5,0.8c0.3-0.5,0.7-0.9,1.2-1c0.6-0.2,1.2-0.3,2.1-0.3c0.8,0,1.5,0.1,2,0.2c0.5,0.1,0.9,0.3,1.1,0.5 c0.2,0.2,0.4,0.5,0.5,0.9c0.2,0.5,0.2,1.2,0.2,2.2v24c0,0.7,0,1.2-0.1,1.5c0,0.3-0.2,0.7-0.4,1.1c-0.4,0.8-1.6,1.2-3.4,1.2 c-1.1,0-1.9-0.1-2.3-0.2c-0.4-0.2-0.8-0.5-1.1-0.8c-6.5-8.7-10.8-14.3-12.8-17v14.2c0,0.7,0,1.2-0.1,1.5c0,0.3-0.2,0.7-0.4,1.1 c-0.4,0.8-1.5,1.2-3.4,1.2c-1.8,0-2.9-0.4-3.3-1.2c-0.2-0.4-0.4-0.8-0.4-1.2c0-0.3-0.1-0.9-0.1-1.5V3.2c0-1.1,0.1-1.9,0.4-2.4 c0.3-0.5,0.7-0.9,1.2-1c0.6-0.2,1.3-0.3,2.1-0.3c0.9,0,1.6,0.1,2.1,0.3c0.5,0.2,0.9,0.3,1.1,0.5c0.1,0.1,0.4,0.5,1,1.1 C58,9.7,62.1,15.2,64.1,17.8V3.2C64.1,2.1,64.3,1.3,64.5,0.8z"></path> </g> </g> </g> <g> <g transform="translate(158.076425, 93.599218)"> <g> <path class="st4" d="M79.7,0c1.4,1,2.1,1.9,2.1,2.9c0,0.5-0.3,1.3-1,2.3l-9.4,14v8.3c0,0.7,0,1.2-0.1,1.5c0,0.3-0.2,0.7-0.4,1.1 c-0.2,0.4-0.6,0.7-1.2,0.9c-0.5,0.2-1.3,0.2-2.2,0.2c-0.9,0-1.7-0.1-2.2-0.2c-0.5-0.2-0.9-0.5-1.2-0.9c-0.2-0.4-0.4-0.8-0.4-1.2 c0-0.3-0.1-0.8-0.1-1.5v-8.2l-9.4-14c-0.7-1-1-1.8-1-2.3c0-0.9,0.6-1.8,1.9-2.7c1.3-0.9,2.2-1.3,2.7-1.3c0.6,0,1,0.1,1.3,0.4 c0.5,0.3,1,0.9,1.6,1.8l6.7,10.8l6.7-10.8c0.5-0.9,1-1.4,1.4-1.7c0.4-0.3,0.9-0.4,1.4-0.4C77.7-1.1,78.5-0.7,79.7,0z"></path> </g> </g> </g> <g> <g transform="translate(188.200545, 93.599218)"> <g> <path class="st4" d="M98.2,0.7c0.2,0.4,0.4,0.8,0.4,1.2c0,0.3,0.1,0.9,0.1,1.5v24c0,2-0.6,3.2-1.6,3.5c-0.5,0.2-1.2,0.3-2.1,0.3 c-0.8,0-1.5-0.1-2-0.2c-0.5-0.2-0.9-0.3-1.1-0.5c-0.2-0.2-0.4-0.5-0.6-0.9c-0.2-0.5-0.2-1.2-0.2-2.2V12.8 c-0.7,0.9-1.8,2.3-3.2,4.3c-1.4,1.9-2.3,3.2-2.6,3.7c-0.4,0.5-0.6,0.8-0.8,1c-0.1,0.2-0.5,0.4-1.1,0.8c-0.6,0.3-1.2,0.5-1.8,0.5 c-0.7,0-1.2-0.2-1.8-0.5c-0.5-0.3-0.9-0.6-1.1-0.9l-0.3-0.5c-0.6-0.7-1.7-2.3-3.4-4.6c-1.7-2.4-2.6-3.6-2.8-3.8v14.6 c0,0.7,0,1.2-0.1,1.5c0,0.3-0.2,0.7-0.4,1.1c-0.4,0.8-1.6,1.2-3.4,1.2c-1.8,0-2.9-0.4-3.3-1.2c-0.2-0.4-0.4-0.8-0.4-1.1 c0-0.3-0.1-0.9-0.1-1.6V3.2c0-0.7,0-1.1,0.1-1.5c0-0.3,0.2-0.7,0.4-1.1c0.4-0.8,1.6-1.1,3.4-1.1c0.8,0,1.4,0.1,2,0.3 c0.6,0.2,0.9,0.4,1.1,0.6l0.3,0.3l9.8,12.9C86.4,7,89.7,2.7,91.4,0.7c0.5-0.8,1.6-1.2,3.5-1.2C96.7-0.5,97.8-0.1,98.2,0.7z"></path> </g> </g> </g> <g> <g transform="translate(224.303254, 93.599218)"> <g> <path class="st4" d="M97.2,0.6c0.3-0.5,0.7-0.8,1.2-1c0.6-0.2,1.2-0.3,2.1-0.3c0.8,0,1.5,0.1,2,0.2c0.5,0.1,0.9,0.3,1.1,0.5 c0.3,0.2,0.4,0.5,0.6,0.9c0.2,0.5,0.3,1.2,0.3,2.2v13.1c0,3.8-1.2,7.3-3.6,10.4c-1.2,1.5-2.6,2.7-4.5,3.6c-1.8,0.9-3.8,1.4-6,1.4 c-2.2,0-4.2-0.5-6-1.4c-1.8-0.9-3.3-2.1-4.4-3.6c-2.3-3.1-3.5-6.5-3.5-10.4v-13c0-0.7,0-1.2,0.1-1.5c0-0.3,0.2-0.7,0.4-1.1 c0.2-0.4,0.6-0.8,1.2-0.9c0.6-0.2,1.3-0.3,2.2-0.3c0.9,0,1.7,0.1,2.2,0.3c0.6,0.2,0.9,0.5,1.1,0.9c0.3,0.7,0.5,1.6,0.5,2.7v13 c0,1.8,0.4,3.4,1.3,5c0.4,0.8,1.1,1.5,1.9,2c0.9,0.5,1.9,0.7,3.1,0.7c2.1,0,3.7-0.8,4.7-2.3c1-1.6,1.6-3.4,1.6-5.4V3 C96.8,1.9,97,1.1,97.2,0.6z"></path> </g> </g> </g> <g> <g transform="translate(255.727071, 93.599218)"> <g> <path class="st4" d="M87.5,26.7c-0.8-0.9-1.1-1.8-1.1-2.5c0-0.7,0.6-1.7,1.9-2.9c0.7-0.7,1.5-1,2.3-1c0.8,0,1.9,0.7,3.4,2.2 c0.4,0.5,1,1,1.7,1.4c0.8,0.4,1.4,0.7,2.1,0.7c2.7,0,4-1.1,4-3.3c0-0.7-0.4-1.2-1.1-1.7c-0.7-0.5-1.7-0.8-2.8-1 c-1.1-0.2-2.3-0.5-3.6-1c-1.3-0.4-2.4-1-3.5-1.6c-1.1-0.6-2-1.6-2.8-2.9c-0.7-1.3-1.1-2.9-1.1-4.8c0-2.5,0.9-4.8,2.8-6.6 c1.9-1.9,4.5-2.9,7.8-2.9c1.7,0,3.3,0.2,4.7,0.7c1.4,0.4,2.4,0.9,3,1.4l1.1,0.8c0.9,0.8,1.3,1.5,1.3,2.1c0,0.6-0.3,1.4-1,2.4 c-1,1.4-2,2.2-3,2.2c-0.6,0-1.4-0.3-2.2-0.9c-0.1-0.1-0.3-0.2-0.5-0.4c-0.2-0.2-0.5-0.4-0.7-0.6C99.5,6.2,98.7,6,97.8,6 c-0.9,0-1.7,0.2-2.3,0.7c-0.6,0.4-0.9,1.1-0.9,1.9s0.4,1.4,1.1,1.9c0.7,0.5,1.7,0.8,2.8,1c1.1,0.2,2.3,0.4,3.6,0.8 c1.3,0.4,2.5,0.8,3.6,1.3c1.1,0.5,2,1.4,2.8,2.7c0.7,1.3,1.1,2.9,1.1,4.7s-0.4,3.5-1.1,5c-0.8,1.4-1.7,2.5-2.9,3.3 c-2.3,1.5-4.8,2.3-7.5,2.3c-1.3,0-2.6-0.2-3.9-0.5c-1.2-0.3-2.2-0.7-2.9-1.2c-1.5-0.9-2.6-1.8-3.2-2.7L87.5,26.7z"></path> </g> </g> </g> <g> <g transform="translate(282.504478, 93.599218)"> <g> <path class="st4" d="M95.9,3.2c0-0.7,0-1.1,0.1-1.5s0.2-0.7,0.4-1.1c0.4-0.8,1.5-1.2,3.4-1.2c2,0,3.2,0.5,3.6,1.6 c0.1,0.5,0.2,1.2,0.2,2.2v24.1c0,0.7,0,1.2-0.1,1.5c0,0.3-0.2,0.7-0.4,1.1c-0.4,0.8-1.5,1.2-3.4,1.2c-2,0-3.2-0.5-3.5-1.6 c-0.2-0.5-0.3-1.2-0.3-2.2V3.2z"></path> </g> </g> </g> <g> <g transform="translate(298.68938, 93.599218)"> <g> <path class="st4" d="M121.1,22.9l0.8-0.6c1-0.6,1.7-0.9,2.1-0.9c0.9,0,1.9,0.8,2.9,2.4c0.6,1,1,1.8,1,2.4c0,0.6-0.2,1.1-0.6,1.5 c-0.4,0.4-0.8,0.8-1.4,1.1c-0.5,0.3-1,0.6-1.5,0.9c-0.5,0.3-1.5,0.7-2.9,1.1c-1.5,0.5-2.9,0.7-4.3,0.7c-1.4,0-2.7-0.2-4.1-0.5 c-1.4-0.4-2.8-1-4.3-1.8c-1.5-0.9-2.8-1.9-4-3.1c-1.2-1.2-2.2-2.8-2.9-4.7c-0.8-1.9-1.1-4-1.1-6.3c0-2.3,0.4-4.3,1.1-6.1 s1.7-3.3,2.9-4.5c1.2-1.2,2.5-2.2,4-3c2.8-1.6,5.7-2.3,8.5-2.3c1.3,0,2.7,0.2,4.1,0.6c1.4,0.4,2.5,0.8,3.2,1.3l1,0.6 c0.5,0.3,0.9,0.6,1.2,0.8c0.8,0.6,1.1,1.3,1.1,2.1c0,0.8-0.3,1.6-0.9,2.4c-1.1,1.6-2.1,2.3-3,2.3c-0.5,0-1.2-0.3-2.2-0.9 c-1.2-1-2.8-1.5-4.9-1.5c-1.9,0-3.7,0.7-5.5,2c-0.9,0.6-1.6,1.5-2.2,2.7c-0.6,1.2-0.9,2.5-0.9,3.9s0.3,2.8,0.9,3.9 c0.6,1.2,1.3,2.1,2.2,2.7c1.8,1.3,3.6,1.9,5.5,1.9c0.9,0,1.7-0.1,2.5-0.4C120.2,23.3,120.8,23.1,121.1,22.9z"></path> </g> </g> </g> </svg>